<svg id="Capa_1" enable-background="new 0 0 512 512" height="512" viewBox="0 0 512 512" width="512" xmlns="http://www.w3.org/2000/svg"><g><g><g><path d="m416.695 512h-321.39c-11.908 0-21.562-9.654-21.562-21.562v-395.728c0-11.908 9.654-21.562 21.562-21.562h321.39c11.908 0 21.562 9.654 21.562 21.562v395.728c0 11.908-9.654 21.562-21.562 21.562z" fill="#f9f6f6"/><g><path d="m416.695 73.148h-20.267v417.29c0 11.908-9.654 21.562-21.562 21.562h41.829c11.908 0 21.562-9.654 21.562-21.562v-395.728c0-11.908-9.654-21.562-21.562-21.562z" fill="#eaeaea"/></g><path d="m286.412 41.627v-11.215c0-16.796-13.616-30.412-30.412-30.412-16.796 0-30.412 13.616-30.412 30.412v11.215c0 6.206-5.031 11.237-11.237 11.237h-41.925c-6.206 0-11.237 5.031-11.237 11.237v19.73c0 6.206 5.031 11.237 11.237 11.237h167.148c6.206 0 11.237-5.031 11.237-11.237v-19.73c0-6.206-5.031-11.237-11.237-11.237h-41.925c-6.206 0-11.237-5.031-11.237-11.237z" fill="#fce25c"/><g><g fill="#fbd307"><path d="m244.583 12.688v28.939c0 6.206 5.031 11.237 11.237 11.237h41.829c-6.206 0-11.237-5.031-11.237-11.237v-11.215c0-16.796-13.616-30.412-30.412-30.412-5.433 0-10.528 1.431-14.942 3.927 2.179 2.278 3.525 5.36 3.525 8.761z"/><path d="m339.574 52.865h-30.592v30.967c0 6.206-5.031 11.237-11.237 11.237h41.829c6.206 0 11.237-5.031 11.237-11.237v-19.73c0-6.206-5.031-11.237-11.237-11.237z"/></g></g></g><g><g><g><g><g><g><g><path d="m388.893 186.869h-166.441c-4.267 0-7.726-3.459-7.726-7.726s3.459-7.726 7.726-7.726h166.441c4.267 0 7.726 3.459 7.726 7.726s-3.459 7.726-7.726 7.726z" fill="#454045"/></g><g><path d="m388.893 229.487h-166.441c-4.267 0-7.726-3.459-7.726-7.726s3.459-7.726 7.726-7.726h166.441c4.267 0 7.726 3.459 7.726 7.726 0 4.266-3.459 7.726-7.726 7.726z" fill="#454045"/></g></g></g></g></g><path d="m139.549 176.372c6.448-.013 9.976 3.255 11.681 5.612.673.93 2.059.953 2.748.035 1.78-2.371 5.402-5.692 11.711-5.647 9.352.068 16.704 7.995 16.335 17.34-.65 16.435-19.801 26.923-26.865 30.241-1.632.767-3.52.774-5.152.008-7.136-3.349-26.698-14.055-26.898-30.849-.109-9.153 7.287-16.722 16.44-16.74z" fill="#fdabdf"/></g><g><g><g><g><g><g><path d="m388.893 295.894h-166.441c-4.267 0-7.726-3.459-7.726-7.726s3.459-7.726 7.726-7.726h166.441c4.267 0 7.726 3.459 7.726 7.726s-3.459 7.726-7.726 7.726z" fill="#454045"/></g><g><path d="m388.893 338.511h-166.441c-4.267 0-7.726-3.459-7.726-7.726s3.459-7.726 7.726-7.726h166.441c4.267 0 7.726 3.459 7.726 7.726s-3.459 7.726-7.726 7.726z" fill="#454045"/></g></g></g></g></g><path d="m139.549 285.396c6.448-.013 9.976 3.255 11.681 5.612.673.93 2.059.953 2.748.035 1.78-2.371 5.402-5.692 11.711-5.647 9.352.068 16.704 7.995 16.335 17.34-.65 16.435-19.801 26.922-26.865 30.241-1.632.767-3.52.774-5.152.008-7.136-3.349-26.698-14.055-26.898-30.849-.109-9.152 7.287-16.721 16.44-16.74z" fill="#fdabdf"/></g><g><g><g><g><g><g><path d="m388.893 404.919h-166.441c-4.267 0-7.726-3.459-7.726-7.726s3.459-7.726 7.726-7.726h166.441c4.267 0 7.726 3.459 7.726 7.726s-3.459 7.726-7.726 7.726z" fill="#454045"/></g><g><path d="m388.893 447.535h-166.441c-4.267 0-7.726-3.459-7.726-7.726s3.459-7.726 7.726-7.726h166.441c4.267 0 7.726 3.459 7.726 7.726s-3.459 7.726-7.726 7.726z" fill="#454045"/></g></g></g></g></g><path d="m139.549 394.421c6.448-.013 9.976 3.255 11.681 5.612.673.93 2.059.953 2.748.035 1.78-2.371 5.402-5.692 11.711-5.647 9.352.068 16.704 7.995 16.335 17.34-.65 16.435-19.801 26.922-26.865 30.241-1.632.767-3.52.774-5.152.008-7.136-3.349-26.698-14.055-26.898-30.849-.109-9.153 7.287-16.722 16.44-16.74z" fill="#fdabdf"/></g></g></g></g></svg>